<svg width="22" height="22" viewBox="0 0 22 22" fill="none" xmlns="http://www.w3.org/2000/svg">
<path fill-rule="evenodd" clip-rule="evenodd" d="M18.6324 10.0163H18.6327L14.6331 12.8351L16.1738 17.4214C16.1976 17.493 16.211 17.5689 16.211 17.6482C16.211 18.049 15.8778 18.3734 15.4666 18.3734C15.3036 18.3734 15.1532 18.3222 15.0304 18.2356L15.0301 18.2359L11 15.3955L6.96989 18.2359L6.96964 18.2356C6.84706 18.3222 6.69643 18.3734 6.5334 18.3734C6.12223 18.3734 5.78897 18.049 5.78897 17.6482C5.78897 17.5689 5.80237 17.493 5.82644 17.4214L7.36717 12.8351L3.36733 10.0163H3.36758C3.18098 9.88456 3.05939 9.67036 3.05939 9.42861C3.05939 9.02827 3.39264 8.70336 3.80382 8.70336H8.75479L10.2883 4.13909C10.3816 3.84246 10.665 3.62658 11 3.62658C11.3352 3.62658 11.6184 3.84246 11.7117 4.13909L13.2452 8.70336H18.1962C18.6073 8.70336 18.9406 9.02827 18.9406 9.42861C18.9406 9.67036 18.8193 9.88456 18.6324 10.0163Z" fill="#FFD300"/>
</svg>
